<svg width="48" height="48" viewBox="0 0 48 48" fill="none" xmlns="http://www.w3.org/2000/svg">
<g clip-path="url(#clip0_1_30)">
<rect width="48" height="48" rx="8" fill="white"/>
<path d="M27.5703 24.3047C26.7734 24.6641 25.9531 24.9609 25.1094 25.1953C24.2812 25.4141 23.4453 25.625 22.6016 25.8281C22.5703 25.8281 22.4844 25.8438 22.3438 25.875C22.2188 25.9062 22.0859 25.9453 21.9453 25.9922C21.8047 26.0234 21.6719 26.0547 21.5469 26.0859C21.4375 26.1016 21.3828 26.1094 21.3828 26.1094C21.1953 26.0469 21.0078 26.0469 20.8203 26.1094C20.6484 26.1562 20.4688 26.2188 20.2812 26.2969C20.1094 26.375 19.9219 26.4375 19.7188 26.4844C19.5156 26.5156 19.2891 26.4766 19.0391 26.3672C18.9922 26.3516 18.9062 26.3672 18.7812 26.4141C18.6562 26.4453 18.5312 26.4922 18.4062 26.5547C18.2812 26.6172 18.1719 26.6953 18.0781 26.7891C17.9844 26.8672 17.9297 26.9375 17.9141 27L18.0547 27.1406C18.0703 27.1875 18.0469 27.2812 17.9844 27.4219C17.9219 27.5469 17.8516 27.6875 17.7734 27.8438C17.6953 27.9844 17.6094 28.1172 17.5156 28.2422C17.4375 28.3672 17.375 28.4453 17.3281 28.4766C17.3438 28.6172 17.3047 28.7891 17.2109 28.9922C17.1328 29.1797 17.0391 29.3828 16.9297 29.6016C16.8359 29.8203 16.7422 30.0469 16.6484 30.2812C16.5703 30.5156 16.5312 30.7344 16.5312 30.9375C16.5312 31 16.5391 31.0625 16.5547 31.125C16.5703 31.1875 16.5703 31.2422 16.5547 31.2891L16.5312 31.3359C16.375 31.4609 16.2578 31.625 16.1797 31.8281C16.1172 32.0156 16.0625 32.2188 16.0156 32.4375C15.9844 32.6406 15.9375 32.8438 15.875 33.0469C15.8281 33.25 15.7422 33.4297 15.6172 33.5859V33.6094L15.5938 33.6328C15.3906 33.7266 15.2188 33.7422 15.0781 33.6797C14.9531 33.6172 14.8359 33.5234 14.7266 33.3984C14.6328 33.2734 14.5391 33.1328 14.4453 32.9766C14.3672 32.8047 14.2734 32.6562 14.1641 32.5312C14.1016 32.3281 14.0781 32.1562 14.0938 32.0156C14.1094 31.8594 14.1797 31.7031 14.3047 31.5469L14.3516 31.5234C14.2578 31.3984 14.2266 31.2891 14.2578 31.1953C14.3047 31.0859 14.3516 30.9844 14.3984 30.8906C14.4609 30.7969 14.5 30.7031 14.5156 30.6094C14.5469 30.5 14.5 30.375 14.375 30.2344L14.4219 30.1875C14.625 29.9844 14.7344 29.7578 14.75 29.5078C14.7656 29.2422 14.75 28.9766 14.7031 28.7109C14.6719 28.4453 14.6484 28.1797 14.6328 27.9141C14.6328 27.6484 14.7109 27.4062 14.8672 27.1875L14.8906 27.1641C14.9062 27.0703 14.8438 26.9453 14.7031 26.7891C14.5625 26.6328 14.4531 26.5156 14.375 26.4375C14.2812 26.6719 14.1562 26.7969 14 26.8125C13.8594 26.8125 13.6953 26.7891 13.5078 26.7422C13.3359 26.6953 13.1641 26.6562 12.9922 26.625C12.8203 26.5938 12.6641 26.6484 12.5234 26.7891L12.4062 26.8828L12.3594 26.7891C12.2969 26.6484 12.2109 26.5781 12.1016 26.5781C12.0078 26.5625 11.8984 26.5625 11.7734 26.5781C11.5859 26.5938 11.4062 26.6094 11.2344 26.625C11.0781 26.625 10.9141 26.625 10.7422 26.625C10.6484 26.5469 10.5391 26.5156 10.4141 26.5312C10.3047 26.5469 10.1875 26.5625 10.0625 26.5781C9.95312 26.5938 9.83594 26.6016 9.71094 26.6016C9.60156 26.5859 9.49219 26.5156 9.38281 26.3906C9.27344 26.4375 9.10156 26.625 8.86719 26.9531C8.63281 27.2656 8.38281 27.6172 8.11719 28.0078C7.86719 28.3984 7.625 28.7812 7.39062 29.1562C7.17188 29.5156 7.02344 29.7656 6.94531 29.9062C6.88281 30 6.80469 30.1172 6.71094 30.2578C6.63281 30.3984 6.54688 30.5469 6.45312 30.7031C6.35938 30.8438 6.27344 30.9844 6.19531 31.125C6.11719 31.25 6.05469 31.3594 6.00781 31.4531L6.03125 31.5234C6.03125 31.6797 6.00781 31.8047 5.96094 31.8984C5.91406 31.9766 5.85156 32.0469 5.77344 32.1094C5.71094 32.1562 5.64844 32.2031 5.58594 32.25C5.52344 32.2812 5.46875 32.3203 5.42188 32.3672C5.29688 32.3672 5.20312 32.3984 5.14062 32.4609C5.07812 32.5234 5.02344 32.5938 4.97656 32.6719C4.92969 32.75 4.875 32.8203 4.8125 32.8828C4.73438 32.9453 4.61719 32.9766 4.46094 32.9766C4.39844 33.0547 4.35938 33.1094 4.34375 33.1406C4.32812 33.1719 4.30469 33.2344 4.27344 33.3281C4.24219 33.4375 4.21875 33.5156 4.20312 33.5625C4.17188 33.6094 4.14844 33.6406 4.13281 33.6562C4.10156 33.6875 4.07031 33.7109 4.03906 33.7266C4.00781 33.7578 3.97656 33.7969 3.94531 33.8438C3.85156 33.8594 3.78125 33.8438 3.73438 33.7969C3.6875 33.75 3.64062 33.6875 3.59375 33.6094C3.54688 33.5469 3.50781 33.4766 3.47656 33.3984C3.42969 33.3359 3.375 33.2891 3.3125 33.2578L3.33594 33.1875C3.64844 32.2656 4.02344 31.3906 4.46094 30.5625C4.89844 29.7188 5.36719 28.8828 5.86719 28.0547C5.89844 27.9922 5.92188 27.9297 5.9375 27.8672C5.95312 27.8047 5.97656 27.7422 6.00781 27.6797C6.08594 27.4766 6.16406 27.2812 6.24219 27.0938C6.33594 26.9062 6.44531 26.7266 6.57031 26.5547C6.67969 26.3828 6.77344 26.2188 6.85156 26.0625C6.94531 25.9062 7.03125 25.7422 7.10938 25.5703L7.0625 25.5234C6.5625 25.1172 6.125 24.7031 5.75 24.2812C5.39062 23.8438 5.04688 23.3516 4.71875 22.8047C4.64062 22.6641 4.5625 22.5234 4.48438 22.3828C4.40625 22.2266 4.32812 22.0859 4.25 21.9609L4.22656 21.9375C4.22656 21.625 4.25 21.3125 4.29688 21C4.34375 20.6875 4.48438 20.4141 4.71875 20.1797L4.74219 20.1562V20.1328C4.82031 19.9766 4.90625 19.8594 5 19.7812C5.09375 19.7031 5.1875 19.6406 5.28125 19.5938C5.39062 19.5469 5.5 19.5078 5.60938 19.4766C5.71875 19.4297 5.82812 19.3594 5.9375 19.2656V19.2422C6.29688 19.0859 6.64844 18.9531 6.99219 18.8438C7.33594 18.7344 7.70312 18.7812 8.09375 18.9844L8.14062 18.9609C8.28125 18.8828 8.45312 18.8438 8.65625 18.8438C8.85938 18.8281 9.03906 18.8203 9.19531 18.8203C9.28906 18.8672 9.38281 18.9297 9.47656 19.0078C9.58594 19.0703 9.6875 19.1328 9.78125 19.1953C9.89062 19.2578 10 19.3047 10.1094 19.3359C10.2188 19.3672 10.3203 19.3594 10.4141 19.3125H10.4375V19.2891C10.5938 19.1328 10.7188 18.9141 10.8125 18.6328C10.9062 18.3359 11 18.0234 11.0938 17.6953C11.2031 17.3672 11.3203 17.0469 11.4453 16.7344C11.5703 16.4062 11.7422 16.125 11.9609 15.8906C11.9609 15.8438 11.9922 15.7422 12.0547 15.5859C12.1172 15.4141 12.1797 15.2266 12.2422 15.0234C12.3203 14.8047 12.375 14.5938 12.4062 14.3906C12.4531 14.1719 12.4531 13.9922 12.4062 13.8516L12.6172 13.875C12.6797 13.8125 12.7188 13.7578 12.7344 13.7109L12.7109 13.6406C12.6484 13.5781 12.625 13.5 12.6406 13.4062C12.6562 13.3125 12.6797 13.2266 12.7109 13.1484H12.6875L12.6641 13.0547C12.7109 13.0391 12.7969 13.0078 12.9219 12.9609C13.0625 12.9141 13.2031 12.8594 13.3438 12.7969C13.4844 12.7344 13.6094 12.6797 13.7188 12.6328C13.8438 12.5859 13.9141 12.5625 13.9297 12.5625C14.1484 12.6875 14.2656 12.8281 14.2812 12.9844C14.3125 13.1406 14.3047 13.3281 14.2578 13.5469C14.2422 13.6562 14.2344 13.75 14.2344 13.8281C14.25 13.8906 14.2578 13.9688 14.2578 14.0625C14.2578 14.2188 14.2188 14.4141 14.1406 14.6484C14.0625 14.8672 13.9688 15.1016 13.8594 15.3516C13.7656 15.6016 13.6562 15.8359 13.5312 16.0547C13.4062 16.2734 13.2969 16.4531 13.2031 16.5938V16.7344C13.2031 17.0625 13.1562 17.4062 13.0625 17.7656C12.9688 18.1094 12.8516 18.4531 12.7109 18.7969C12.5703 19.1406 12.4141 19.4766 12.2422 19.8047C12.0859 20.1328 11.9297 20.4453 11.7734 20.7422C11.6641 20.9297 11.5469 21.1484 11.4219 21.3984C11.2969 21.6328 11.1719 21.875 11.0469 22.125C10.9375 22.375 10.8359 22.6328 10.7422 22.8984C10.6641 23.1484 10.6094 23.375 10.5781 23.5781V23.6016L9.99219 24.7031C10.0547 24.7812 10.1484 24.8516 10.2734 24.9141C10.4141 24.9609 10.5547 25.0078 10.6953 25.0547C10.8516 25.1016 11 25.1406 11.1406 25.1719C11.2969 25.1875 11.4297 25.1953 11.5391 25.1953C11.7109 25.1953 11.8516 25.2109 11.9609 25.2422C12.0859 25.2578 12.2109 25.3359 12.3359 25.4766L12.3828 25.5234H12.4297C12.5547 25.4922 12.6641 25.4766 12.7578 25.4766C12.8516 25.4766 12.9609 25.4766 13.0859 25.4766C13.2109 25.5078 13.3281 25.5156 13.4375 25.5C13.5625 25.4844 13.6875 25.4688 13.8125 25.4531L13.7891 25.6172C13.8672 25.6953 13.9297 25.75 13.9766 25.7812C14.0547 25.6562 14.1484 25.5312 14.2578 25.4062C14.3203 25.5 14.375 25.5703 14.4219 25.6172C14.4688 25.5859 14.5234 25.5234 14.5859 25.4297C14.6641 25.3359 14.7188 25.2891 14.75 25.2891L14.7734 25.2656L14.7969 25.2891C15.0781 25.3828 15.3359 25.4141 15.5703 25.3828C15.8047 25.3516 16.0625 25.3359 16.3438 25.3359C16.3906 25.2266 16.4531 25.1406 16.5312 25.0781C16.625 25.0156 16.7031 24.9531 16.7656 24.8906C16.8438 24.8125 16.8906 24.7344 16.9062 24.6562C16.9219 24.5781 16.8828 24.4688 16.7891 24.3281L16.7656 24.2812C16.7656 24.2812 16.7891 24.2344 16.8359 24.1406C16.8984 24.0469 16.9609 23.9453 17.0234 23.8359C17.0859 23.7109 17.1406 23.6016 17.1875 23.5078C17.25 23.4141 17.2891 23.3516 17.3047 23.3203C17.6172 22.8047 17.8906 22.2812 18.125 21.75C18.3594 21.2031 18.4766 20.625 18.4766 20.0156V19.8516C18.5078 19.8359 18.5391 19.8281 18.5703 19.8281C18.8047 19.7344 18.9297 19.6094 18.9453 19.4531C18.9609 19.2812 18.9531 19.1016 18.9219 18.9141C18.8906 18.7266 18.8906 18.5391 18.9219 18.3516C18.9688 18.1641 19.1328 18 19.4141 17.8594L19.4609 17.8359L19.4844 17.7891C19.5781 17.5547 19.6562 17.3203 19.7188 17.0859C19.7969 16.8359 19.8828 16.5938 19.9766 16.3594C20.2734 15.6562 20.4922 14.8984 20.6328 14.0859C20.6641 13.8984 20.7344 13.7344 20.8438 13.5938C20.9688 13.4375 21.0938 13.2891 21.2188 13.1484C21.3438 12.9922 21.4531 12.8359 21.5469 12.6797C21.6562 12.5078 21.7109 12.3203 21.7109 12.1172C21.7109 11.9922 21.6953 11.9062 21.6641 11.8594V11.7891L21.7109 11.7656C22.0234 11.6094 22.2656 11.4141 22.4375 11.1797C22.6094 10.9453 22.6953 10.6484 22.6953 10.2891C22.6953 10.2422 22.6875 10.1562 22.6719 10.0312C22.6719 9.90625 22.6562 9.82812 22.625 9.79688C22.7656 9.70312 22.9141 9.57812 23.0703 9.42188L23.1172 9.44531C23.4141 9.66406 23.5938 9.89062 23.6562 10.125C23.7344 10.3438 23.75 10.5703 23.7031 10.8047C23.6719 11.0391 23.6172 11.2812 23.5391 11.5312C23.4609 11.7812 23.4219 12.0391 23.4219 12.3047L23.3984 12.3281C23.1641 12.7344 22.9766 13.1953 22.8359 13.7109C22.6953 14.2266 22.625 14.7266 22.625 15.2109C22.4531 15.2109 22.3438 15.25 22.2969 15.3281C22.2656 15.4062 22.2344 15.5078 22.2031 15.6328C22.1875 15.7422 22.1562 15.8594 22.1094 15.9844C22.0781 16.1094 21.9844 16.2188 21.8281 16.3125L21.875 16.3828C21.875 16.4141 21.875 16.4375 21.875 16.4531C21.8906 16.4688 21.8984 16.4922 21.8984 16.5234C21.8984 16.6172 21.875 16.7031 21.8281 16.7812C21.7812 16.8438 21.7344 16.9141 21.6875 16.9922C21.6406 17.0547 21.6094 17.125 21.5938 17.2031C21.5938 17.2812 21.6328 17.3672 21.7109 17.4609C21.7734 17.5547 21.8125 17.6094 21.8281 17.625H21.5703C21.3203 18.1094 21.0938 18.6016 20.8906 19.1016C20.6875 19.6016 20.5 20.1094 20.3281 20.625C20.1875 21.0625 20.0391 21.4922 19.8828 21.9141C19.7266 22.3359 19.5391 22.75 19.3203 23.1562V23.2266C19.4609 23.4922 19.4688 23.7031 19.3438 23.8594C19.2344 24.0156 19.1094 24.1562 18.9688 24.2812C18.8438 24.3906 18.7578 24.5 18.7109 24.6094C18.6641 24.7188 18.7734 24.8594 19.0391 25.0312C19.2422 24.8281 19.4297 24.7578 19.6016 24.8203C19.7734 24.8828 19.9844 24.9453 20.2344 25.0078C20.2812 24.9609 20.3203 24.9219 20.3516 24.8906C20.3984 24.8438 20.4688 24.8359 20.5625 24.8672C20.5781 24.8828 20.5938 24.8984 20.6094 24.9141C20.625 24.9141 20.6406 24.9219 20.6562 24.9375C20.75 24.7969 20.8359 24.7188 20.9141 24.7031C20.9922 24.6875 21.0703 24.6953 21.1484 24.7266C21.2266 24.7578 21.3047 24.7891 21.3828 24.8203C21.4609 24.8516 21.5391 24.8438 21.6172 24.7969C21.6641 24.7656 21.6953 24.7188 21.7109 24.6562C21.7266 24.5781 21.75 24.5078 21.7812 24.4453C22.0156 24.6797 22.2109 24.7969 22.3672 24.7969C22.5391 24.7812 22.6953 24.7344 22.8359 24.6562C22.9922 24.5625 23.1406 24.4766 23.2812 24.3984C23.4375 24.3203 23.6172 24.3281 23.8203 24.4219C23.9922 24.4219 24.1641 24.4062 24.3359 24.375C24.5234 24.3281 24.7031 24.2891 24.875 24.2578C25.3281 24.1797 25.7734 24.1172 26.2109 24.0703C26.6484 24.0234 27.0938 24.0391 27.5469 24.1172L27.5703 24.3047ZM9.54688 19.8047C9.40625 19.8047 9.27344 19.8125 9.14844 19.8281C9.03906 19.8438 8.9375 19.8984 8.84375 19.9922C8.82812 19.9766 8.8125 19.9688 8.79688 19.9688C8.1875 19.7969 7.60156 19.8281 7.03906 20.0625C6.47656 20.2969 5.99219 20.6328 5.58594 21.0703L5.53906 21.2578C5.52344 21.3047 5.51562 21.3594 5.51562 21.4219C5.51562 21.4688 5.51562 21.5078 5.51562 21.5391C5.51562 21.8359 5.58594 22.1094 5.72656 22.3594C5.82031 22.5469 5.92969 22.7031 6.05469 22.8281C6.19531 22.9531 6.34375 23.0703 6.5 23.1797C6.67188 23.2891 6.83594 23.3984 6.99219 23.5078C7.16406 23.6172 7.32031 23.75 7.46094 23.9062C7.77344 23.9062 7.98438 23.8281 8.09375 23.6719C8.21875 23.5 8.30469 23.3047 8.35156 23.0859C8.41406 22.8516 8.47656 22.6172 8.53906 22.3828C8.60156 22.1484 8.73438 21.9609 8.9375 21.8203C8.95312 21.8203 8.96094 21.8203 8.96094 21.8203C8.96094 21.8047 8.96875 21.7969 8.98438 21.7969C8.92188 21.6406 8.92188 21.4844 8.98438 21.3281C9.0625 21.1719 9.14844 21.0156 9.24219 20.8594C9.35156 20.7031 9.4375 20.5391 9.5 20.3672C9.57812 20.1953 9.59375 20.0078 9.54688 19.8047ZM45.4062 26.9062C45.3438 27.2812 45.1875 27.6094 44.9375 27.8906C44.6875 28.1719 44.3984 28.3984 44.0703 28.5703H44.0469C43.6719 28.7891 43.2891 29.0078 42.8984 29.2266C42.5234 29.4453 42.1328 29.6406 41.7266 29.8125C41.2734 30 40.8516 30.2031 40.4609 30.4219C40.0703 30.6406 39.6719 30.8828 39.2656 31.1484L39.1953 31.1953L39.4297 31.3828C39.3359 31.5078 39.1875 31.6094 38.9844 31.6875C38.7812 31.75 38.5781 31.8281 38.375 31.9219C38.1875 32 38.0312 32.1094 37.9062 32.25C37.7969 32.3906 37.7812 32.5859 37.8594 32.8359C37.0156 33.4453 36.0859 33.8203 35.0703 33.9609C34.0703 34.1016 33.0625 34.1016 32.0469 33.9609C31.6094 33.8984 31.1328 33.8047 30.6172 33.6797C30.1172 33.5547 29.6094 33.4062 29.0938 33.2344C28.5781 33.0781 28.0781 32.8984 27.5938 32.6953C27.1094 32.4922 26.6719 32.2812 26.2812 32.0625C26.2031 32.0156 26.125 31.9609 26.0469 31.8984C25.9688 31.8203 25.8906 31.7578 25.8125 31.7109L24.4766 30.75L24.4297 30.7734C24.1484 30.9141 23.9297 31.1016 23.7734 31.3359C23.6172 31.5547 23.4922 31.7891 23.3984 32.0391C23.2891 32.2891 23.1875 32.5391 23.0938 32.7891C23 33.0391 22.8906 33.25 22.7656 33.4219C22.625 33.5938 22.4453 33.7109 22.2266 33.7734C22.0078 33.8516 21.7188 33.8359 21.3594 33.7266C21.3125 33.3828 21.3125 33.0391 21.3594 32.6953C21.4062 32.3359 21.4531 31.9844 21.5 31.6406C21.5469 31.2969 21.5859 30.9688 21.6172 30.6562C21.6484 30.3438 21.6328 30.0547 21.5703 29.7891C21.8672 29.6641 22.0469 29.5 22.1094 29.2969C22.1562 29.0781 22.1875 28.8594 22.2031 28.6406C22.2031 28.4219 22.2422 28.2188 22.3203 28.0312C22.3984 27.8438 22.6094 27.7031 22.9531 27.6094C22.9531 27.2656 23.0078 26.9531 23.1172 26.6719C23.2266 26.3906 23.3438 26.1172 23.4688 25.8516C23.5938 25.5703 23.7031 25.2891 23.7969 25.0078C23.9062 24.7266 23.9531 24.4062 23.9375 24.0469C24.4375 23.3281 24.8828 22.5781 25.2734 21.7969C25.6641 21 26.0391 20.2031 26.3984 19.4062C26.7734 18.5625 27.1641 17.7266 27.5703 16.8984C27.9766 16.0547 28.4375 15.2734 28.9531 14.5547C29.4844 13.8203 30.0859 13.1641 30.7578 12.5859C31.4453 11.9922 32.25 11.5156 33.1719 11.1562C33.2656 11.125 33.3906 11.0859 33.5469 11.0391C33.7188 10.9766 33.8984 10.9219 34.0859 10.875C34.2734 10.8281 34.4453 10.7891 34.6016 10.7578C34.7734 10.7109 34.8984 10.6875 34.9766 10.6875C35.0547 10.6875 35.1484 10.7031 35.2578 10.7344C35.3828 10.75 35.4844 10.7656 35.5625 10.7812C35.8125 10.8281 36.0625 10.875 36.3125 10.9219C36.5625 10.9531 36.7969 11.0156 37.0156 11.1094C37.25 11.1875 37.4531 11.3047 37.625 11.4609C37.8125 11.6172 37.9609 11.8281 38.0703 12.0938V12.1172C38.1016 12.2422 38.1406 12.3828 38.1875 12.5391C38.25 12.6797 38.3047 12.8125 38.3516 12.9375C38.4609 13.2969 38.5703 13.7188 38.6797 14.2031C38.8047 14.6875 38.8672 15.125 38.8672 15.5156C38.8672 16.5312 38.7109 17.5234 38.3984 18.4922C38.0859 19.4609 37.7031 20.3906 37.25 21.2812L37.2734 21.3047C38.0703 22.4766 38.7266 23.7188 39.2422 25.0312C39.7734 26.3281 40.0391 27.6875 40.0391 29.1094C40.4922 29.0312 40.9219 28.8906 41.3281 28.6875C41.7344 28.4844 42.1406 28.2734 42.5469 28.0547C43 27.8203 43.4609 27.6016 43.9297 27.3984C44.4141 27.1797 44.9062 27.0156 45.4062 26.9062ZM34.4609 22.3359C34.4141 22.2109 34.3359 22.1406 34.2266 22.125C34.1328 22.0938 34.0234 22.0859 33.8984 22.1016C33.8359 22.1172 33.7812 22.125 33.7344 22.125C33.7031 22.1094 33.6562 22.1016 33.5938 22.1016C33.3281 22.0859 33.1016 22.1328 32.9141 22.2422C32.7266 22.3359 32.5625 22.4688 32.4219 22.6406C32.2812 22.8125 32.1562 23.0078 32.0469 23.2266C31.9375 23.4297 31.8281 23.625 31.7188 23.8125L31.8125 23.9297C32.125 23.8672 32.4219 23.7734 32.7031 23.6484C32.9844 23.5234 33.2656 23.3828 33.5469 23.2266C33.6875 23.1484 33.8359 23.0781 33.9922 23.0156C34.1484 22.9531 34.3047 22.8828 34.4609 22.8047V22.3359ZM38.7031 29.0156C38.5938 28.5 38.4844 27.9609 38.375 27.3984C38.2656 26.8203 38.125 26.2578 37.9531 25.7109C37.7969 25.1641 37.5859 24.6406 37.3203 24.1406C37.0703 23.6406 36.75 23.1953 36.3594 22.8047C36.25 23.0391 36.0859 23.2656 35.8672 23.4844C35.6484 23.7031 35.3984 23.9141 35.1172 24.1172C34.8516 24.3047 34.5781 24.4844 34.2969 24.6562C34.0312 24.8125 33.7891 24.9453 33.5703 25.0547C33.3203 25.0391 33.0391 25.0781 32.7266 25.1719C32.4141 25.25 32.1016 25.3203 31.7891 25.3828C31.4766 25.4297 31.1797 25.4375 30.8984 25.4062C30.6328 25.3594 30.4219 25.1953 30.2656 24.9141V24.8906C30.1719 24.8281 30.0703 24.7812 29.9609 24.75C29.8672 24.7188 29.7891 24.6484 29.7266 24.5391C29.6797 24.4297 29.6875 24.3047 29.75 24.1641C29.8281 24.0234 29.9062 23.8672 29.9844 23.6953C30.0781 23.5234 30.1484 23.3438 30.1953 23.1562C30.2422 22.9688 30.2109 22.7734 30.1016 22.5703C30.1953 22.1172 30.3828 21.8047 30.6641 21.6328C30.9453 21.4453 31.2656 21.3203 31.625 21.2578C32 21.1797 32.375 21.125 32.75 21.0938C33.1406 21.0625 33.4844 20.9688 33.7812 20.8125C34.0781 20.9375 34.4219 21.0078 34.8125 21.0234C35.2031 21.0234 35.5469 20.9453 35.8438 20.7891L36.2891 19.8047C36.5234 19.3203 36.7266 18.875 36.8984 18.4688C37.0859 18.0469 37.2266 17.6328 37.3203 17.2266C37.4297 16.8203 37.4922 16.3984 37.5078 15.9609C37.5391 15.5078 37.5156 15 37.4375 14.4375V14.3906H37.4141C37.1953 14.2812 37.0781 14.1328 37.0625 13.9453C37.0469 13.7578 37.0391 13.5547 37.0391 13.3359C36.9141 13.1328 36.7578 12.9141 36.5703 12.6797C36.3828 12.4453 36.1797 12.2812 35.9609 12.1875C35.7734 12.1094 35.5547 12.0547 35.3047 12.0234C35.0547 11.9922 34.7969 11.9844 34.5312 12C34.2812 12 34.0312 12.0312 33.7812 12.0938C33.5469 12.1562 33.3359 12.2422 33.1484 12.3516L33.1016 12.3984C32.9766 12.6016 32.8438 12.7578 32.7031 12.8672C32.5625 12.9609 32.3906 13.0625 32.1875 13.1719C32.0469 13.25 31.8906 13.3359 31.7188 13.4297C31.5625 13.5078 31.4141 13.6016 31.2734 13.7109C31.1484 13.8047 31.0391 13.9219 30.9453 14.0625C30.8516 14.2031 30.8047 14.375 30.8047 14.5781V15.4453C30.8047 15.4609 30.7812 15.5156 30.7344 15.6094C30.7031 15.7031 30.6562 15.8047 30.5938 15.9141C30.5469 16.0234 30.5 16.1328 30.4531 16.2422C30.4062 16.3359 30.375 16.3984 30.3594 16.4297C30.1406 16.8984 29.9141 17.3594 29.6797 17.8125C29.4453 18.2656 29.1641 18.6953 28.8359 19.1016V19.125C28.6484 19.6406 28.4531 20.1562 28.25 20.6719C28.0625 21.1875 27.8828 21.7109 27.7109 22.2422C27.3203 23.3984 26.9141 24.5469 26.4922 25.6875C26.0703 26.8281 25.5156 27.9141 24.8281 28.9453C25.3281 29.2734 25.8359 29.6172 26.3516 29.9766C26.8672 30.3203 27.4062 30.5938 27.9688 30.7969C28.2188 30.875 28.4688 30.9531 28.7188 31.0312C28.9688 31.1094 29.2031 31.2109 29.4219 31.3359L29.4453 31.3594C29.6953 31.3594 29.9609 31.3984 30.2422 31.4766C30.5234 31.5391 30.8047 31.6016 31.0859 31.6641C31.3672 31.7109 31.6406 31.7422 31.9062 31.7578C32.1875 31.7578 32.4375 31.6875 32.6562 31.5469C32.7812 31.5938 32.8906 31.5938 32.9844 31.5469C33.0938 31.5 33.1953 31.4609 33.2891 31.4297C33.3828 31.3828 33.4688 31.3672 33.5469 31.3828C33.6406 31.3828 33.7266 31.4531 33.8047 31.5938C34.0859 31.3906 34.375 31.2578 34.6719 31.1953C34.9844 31.1328 35.3047 31.0703 35.6328 31.0078C35.8047 30.9766 35.9688 30.9453 36.125 30.9141C36.2969 30.8672 36.4688 30.8281 36.6406 30.7969H36.6641L36.6875 30.7734C36.8125 30.6016 36.9453 30.4844 37.0859 30.4219C37.2266 30.3594 37.3828 30.2891 37.5547 30.2109C37.6797 30.1641 37.8047 30.1094 37.9297 30.0469C38.0703 29.9844 38.1875 29.9141 38.2812 29.8359C38.375 29.7422 38.4219 29.6406 38.4219 29.5312C38.4375 29.4062 38.3906 29.2578 38.2812 29.0859L38.3516 29.0625C38.4297 28.9844 38.4844 28.9531 38.5156 28.9688C38.5625 28.9688 38.625 28.9844 38.7031 29.0156Z" fill="#151515"/>
</g>
<defs>
<clipPath id="clip0_1_30">
<rect width="48" height="48" rx="8" fill="white"/>
</clipPath>
</defs>
</svg>
